<svg height="512pt" viewBox="0 0 512.0005 512" width="512pt" xmlns="http://www.w3.org/2000/svg" fill="#231942"><g fill-rule="evenodd"><path d="m227.445312 227.84375 28.554688-34.089844-153.90625-183.753906h-92.085938v92.085938l189.695313 158.882812zm0 0" fill="#e6e6e6"/><path d="m256 193.753906-28.554688 34.089844-27.742187 33.125-41.59375 49.660156 24.691406 18.5625 18.5625 24.691406 54.636719-45.761718 56.296875-47.152344 189.695313-158.882812v-92.085938h-92.085938zm0 0" fill="#e6e6e6"/><path d="m312.296875 260.96875-27.929687 23.390625 44.835937 44.832031 24.6875-18.5625zm0 0" fill="#e6e6e6"/><path d="m329.199219 329.191406-44.832031-44.832031-28.367188 23.761719 54.636719 45.761718zm0 0" fill="#e6e6e6"/><path d="m225.636719 386.171875-24.273438-32.289063-18.5625-24.691406-24.691406-18.5625-32.289063-24.273437-32.699218 32.699219 24.578125 32.695312 18.257812 24.285156 24.285157 18.257813 32.691406 24.578125zm0 0" fill="#756c9e"/><path d="m310.636719 353.882812-24.273438 32.289063 32.703125 32.699219 32.691406-24.578125 24.285157-18.257813 18.257812-24.285156 24.582031-32.695312-32.703124-32.699219-32.289063 24.273437-24.691406 18.5625zm0 0" fill="#756c9e"/><path d="m160.242188 394.292969-24.285157-18.257813-18.257812-24.285156-36.753907 36.75 48.574219 36.515625zm0 0" fill="#6c5d9e"/><path d="m129.519531 425.015625-48.574219-36.515625-38.445312 38.449219 48.574219 36.515625zm0 0" fill="#aba5c4"/><path d="m91.074219 463.464844-48.574219-36.515625-26.65625 26.652343c-7.78125 7.78125-7.78125 20.503907-.003906 28.28125l14.265625 14.265626c7.777343 7.777343 20.503906 7.777343 28.28125 0zm0 0" fill="#6c5d9e"/><path d="m351.757812 394.292969 30.722657 30.722656 48.574219-36.515625-36.753907-36.75-18.257812 24.285156zm0 0" fill="#6c5d9e"/><path d="m431.054688 388.5-48.574219 36.515625 38.445312 38.449219 48.574219-36.515625zm0 0" fill="#aba5c4"/><path d="m469.5 426.949219-48.574219 36.515625 32.6875 32.683594c7.777344 7.777343 20.503907 7.777343 28.28125 0l14.265625-14.265626c7.777344-7.777343 7.777344-20.5-.003906-28.28125zm0 0" fill="#6c5d9e"/></g><path d="m403.042969 171.917969-.207031.171875c-4.238282 3.539062-4.804688 9.84375-1.265626 14.085937 1.976563 2.367188 4.816407 3.589844 7.679688 3.589844 2.261719 0 4.53125-.761719 6.402344-2.324219l.207031-.171875c4.242187-3.542969 4.808594-9.847656 1.269531-14.085937-3.539062-4.238282-9.84375-4.804688-14.085937-1.265625zm0 0"/><path d="m61.863281 20h.269531c5.519532 0 10-4.476562 10-10s-4.480468-10-10-10h-.269531c-5.523437 0-10 4.476562-10 10s4.476563 10 10 10zm0 0"/><path d="m503.226562 446.53125-95.710937-95.714844 19.359375-25.75c2.992188-3.980468 2.601562-9.558594-.921875-13.082031l-32.703125-32.699219c-3.519531-3.523437-9.097656-3.917968-13.078125-.921875l-24.703125 18.570313-29.085938-34.722656 58.648438-49.121094c4.230469-3.542969 4.789062-9.851563 1.242188-14.085938-3.546876-4.234375-9.851563-4.789062-14.085938-1.246094l-66.308594 55.539063v.003906c-.003906 0-.003906 0-.003906.003907l-27.507812 23.039062c-.289063.214844-.566407.449219-.835938.699219l-74.507812 62.40625-7.011719-9.328125 240.691406-240.691406 45.472656 16.207031-57.121093 47.84375c-4.230469 3.546875-4.789063 9.851562-1.242188 14.085937 3.542969 4.234375 9.851562 4.792969 14.085938 1.246094l70.394531-58.960938c2.308593-1.890624 3.695312-4.777343 3.695312-7.765624v-92.085938c0-5.523438-4.476562-10-9.996093-10h-92.085938c-2.929688 0-5.789062 1.335938-7.667969 3.578125l-146.238281 174.601563-146.238281-174.601563c-4.863281-5.820313-14.539063-4.070313-17.085938 3.0625l-22.605469 63.417969-50.0625 17.847656v-67.90625h13.125c5.519532 0 10-4.476562 10-10s-4.480468-10-10-10h-23.125c-5.519531 0-9.9960932 4.476562-9.9960932 10v92.085938c0 2.964843 1.3789062 5.910156 3.6953122 7.765624l181.910157 152.359376-29.082032 34.726562-24.707031-18.574219c-3.980469-2.992187-9.554687-2.601562-13.078125.921875l-32.703125 32.699219c-3.519531 3.523437-3.914063 9.101563-.921875 13.082031l19.363281 25.75-95.714843 95.714844c-11.695313 11.695312-11.695313 30.726562-.003907 42.421875l14.265625 14.265625c5.851563 5.847656 13.53125 8.773438 21.210938 8.773438 7.683594 0 15.363281-2.925782 21.214844-8.773438l95.714843-95.714844 25.75 19.359375c1.789063 1.347657 3.902344 2.007813 6.007813 2.007813 2.574218 0 5.136718-.992188 7.074218-2.929688l32.699219-32.699218c3.519531-3.523438 3.914063-9.101563.921875-13.082032l-18.570312-24.703125 40.941406-34.292969 40.945312 34.292969-18.570312 24.703125c-2.996094 3.980469-2.601562 9.558594.921875 13.082032l32.699219 32.699218c1.9375 1.9375 4.5 2.929688 7.074218 2.929688 2.101563 0 4.214844-.660156 6.003907-2.007813l25.753906-19.359375 95.714844 95.714844c5.648437 5.648438 13.183593 8.761719 21.210937 8.761719s15.5625-3.113281 21.210938-8.761719l14.265625-14.265625c11.695312-11.695313 11.695312-30.726563-.003907-42.421875zm-11.234374-358.625-50.0625-17.847656-17.84375-50.058594h67.90625zm-265.199219 125.144531-137.460938-137.464843 16.316407-45.773438 137.308593 163.941406zm-196.96875-107.414062 45.171875-16.101563 138.90625 138.90625-15.445313 18.4375zm205.375 128.523437c.003906-.003906.003906-.007812.007812-.007812l171.144531-204.335938 16.210938 45.472656-240.695312 240.691407-9.324219-7.011719zm-108.445313 65.40625 40.832032 30.695313-30.558594 30.558593-30.695313-40.832031zm-36.613281 150.6875-32.429687-24.378906 24.167968-24.167969 32.429688 24.378907zm-38.824219 38.824219c-3.898437 3.898437-10.242187 3.898437-14.140625 0l-14.261719-14.265625c-3.898437-3.898438-3.898437-10.242188 0-14.140625l20.515626-20.515625 32.429687 24.378906zm77.273438-77.273437-32.429688-24.378907 20.464844-20.464843s11.394531 15.148437 11.421875 15.183593c.257813.332031.53125.65625.835937.960938.304688.304687.628907.578125.964844.835937.035156.027344 15.179688 11.425782 15.179688 11.425782zm63.414062-6.144532-40.832031-30.699218 30.554687-30.554688 30.699219 40.832031zm205.691406 20.425782 32.425782-24.378907 24.167968 24.167969-32.429687 24.375zm-12.445312-126.519532 20.421875 20.421875-30.699219 40.832031-30.558594-30.554687zm-45.789062 9.402344-9.328126 7.011719-30.96875-30.96875 11.886719-9.957031zm-67.886719-.847656 12.195312-10.21875 32.222657 32.21875-7.011719 9.328125zm48.421875 97.539062-20.421875-20.421875 30.699219-40.832031 30.558593 30.554688zm62.160156-21.722656c.328125-.253906.648438-.523438.953125-.828125.003906-.003906.011719-.007813.015625-.015625.300781-.296875.566406-.617188.820312-.945312.03125-.035157 11.429688-15.1875 11.429688-15.1875l20.464844 20.464843-32.429688 24.378907-16.4375-16.441407c0 .003907 15.148438-11.398437 15.183594-11.425781zm106.929688 90.875-14.265626 14.265625c-1.871093 1.871094-4.382812 2.902344-7.066406 2.902344-2.6875 0-5.199218-1.03125-7.070312-2.902344l-24.542969-24.542969 32.429687-24.378906 20.515626 20.515625c3.898437 3.898437 3.898437 10.242187 0 14.140625zm0 0"/></svg>